<svg xmlns="http://www.w3.org/2000/svg" xmlns:xlink="http://www.w3.org/1999/xlink" width="500" zoomAndPan="magnify" viewBox="0 0 375 374.999991" height="500" preserveAspectRatio="xMidYMid meet" version="1.0"><defs><g/><clipPath id="cc2fa85421"><path d="M 123 77.203125 L 262.5 77.203125 L 262.5 201.703125 L 123 201.703125 Z M 123 77.203125 " clip-rule="nonzero"/></clipPath><clipPath id="61df5d6ccd"><path d="M 183.210938 19.589844 L 195.15625 19.589844 L 195.15625 31.53125 L 183.210938 31.53125 Z M 183.210938 19.589844 " clip-rule="nonzero"/></clipPath><clipPath id="9e77da356b"><path d="M 189.183594 19.589844 C 185.882812 19.589844 183.210938 22.261719 183.210938 25.5625 C 183.210938 28.859375 185.882812 31.53125 189.183594 31.53125 C 192.480469 31.53125 195.15625 28.859375 195.15625 25.5625 C 195.15625 22.261719 192.480469 19.589844 189.183594 19.589844 Z M 189.183594 19.589844 " clip-rule="nonzero"/></clipPath><clipPath id="31d1b75da6"><path d="M 181.007812 338.207031 L 193.628906 338.207031 L 193.628906 350.828125 L 181.007812 350.828125 Z M 181.007812 338.207031 " clip-rule="nonzero"/></clipPath><clipPath id="e4c5c00f86"><path d="M 187.316406 338.207031 C 183.832031 338.207031 181.007812 341.03125 181.007812 344.515625 C 181.007812 348.003906 183.832031 350.828125 187.316406 350.828125 C 190.804688 350.828125 193.628906 348.003906 193.628906 344.515625 C 193.628906 341.03125 190.804688 338.207031 187.316406 338.207031 Z M 187.316406 338.207031 " clip-rule="nonzero"/></clipPath></defs><rect x="-37.5" width="450" fill="#ffffff" y="-37.499999" height="449.999989" fill-opacity="1"/><rect x="-37.5" width="450" fill="#007bff" y="-37.499999" height="449.999989" fill-opacity="1"/><g clip-path="url(#cc2fa85421)"><path fill="#ffffff" d="M 165.480469 186.941406 C 165.917969 187.203125 166.328125 187.5 166.710938 187.84375 C 167.089844 188.183594 167.4375 188.554688 167.742188 188.964844 C 168.050781 189.371094 168.316406 189.804688 168.539062 190.261719 C 168.765625 190.722656 168.941406 191.199219 169.070312 191.695312 C 169.199219 192.1875 169.28125 192.691406 169.3125 193.199219 C 169.34375 193.710938 169.324219 194.21875 169.257812 194.722656 C 169.191406 195.230469 169.074219 195.722656 168.910156 196.207031 C 168.746094 196.691406 168.535156 197.15625 168.28125 197.597656 C 168.03125 198.039062 167.742188 198.449219 167.414062 198.835938 C 167.082031 199.21875 166.71875 199.566406 166.320312 199.875 C 165.917969 200.1875 165.492188 200.457031 165.039062 200.679688 C 164.585938 200.90625 164.117188 201.085938 163.628906 201.214844 C 163.136719 201.347656 162.640625 201.429688 162.136719 201.460938 C 161.632812 201.496094 161.128906 201.476562 160.625 201.410156 C 160.125 201.339844 159.636719 201.222656 159.15625 201.058594 C 158.679688 200.890625 158.222656 200.679688 157.785156 200.421875 C 156.800781 199.839844 155.832031 199.238281 154.875 198.609375 C 153.917969 197.980469 152.980469 197.332031 152.054688 196.660156 C 151.128906 195.984375 150.222656 195.289062 149.332031 194.574219 C 148.441406 193.855469 147.570312 193.117188 146.714844 192.355469 C 145.859375 191.597656 145.027344 190.816406 144.210938 190.015625 C 143.394531 189.214844 142.597656 188.398438 141.820312 187.558594 C 141.042969 186.71875 140.285156 185.863281 139.550781 184.984375 C 138.816406 184.109375 138.105469 183.214844 137.410156 182.304688 C 136.71875 181.394531 136.050781 180.46875 135.40625 179.527344 C 134.757812 178.582031 134.136719 177.625 133.535156 176.652344 C 132.9375 175.675781 132.359375 174.691406 131.808594 173.6875 C 131.257812 172.6875 130.730469 171.671875 130.226562 170.644531 C 129.722656 169.617188 129.246094 168.582031 128.792969 167.53125 C 128.34375 166.480469 127.914062 165.417969 127.515625 164.347656 C 127.113281 163.277344 126.742188 162.199219 126.394531 161.109375 C 126.042969 160.019531 125.722656 158.921875 125.429688 157.816406 C 125.132812 156.710938 124.867188 155.601562 124.625 154.484375 C 124.386719 153.367188 124.171875 152.242188 123.984375 151.113281 C 123.800781 149.988281 123.640625 148.855469 123.511719 147.71875 C 123.378906 146.582031 123.277344 145.445312 123.199219 144.304688 C 123.125 143.164062 123.078125 142.019531 123.058594 140.878906 C 123.039062 139.734375 123.046875 138.589844 123.082031 137.449219 C 123.117188 136.304688 123.179688 135.164062 123.269531 134.023438 C 123.363281 132.886719 123.480469 131.746094 123.625 130.613281 C 123.773438 129.480469 123.945312 128.351562 124.148438 127.226562 C 124.347656 126.097656 124.578125 124.980469 124.832031 123.863281 C 125.089844 122.75 125.371094 121.644531 125.679688 120.542969 C 125.992188 119.441406 126.328125 118.347656 126.691406 117.265625 C 127.050781 116.179688 127.441406 115.105469 127.855469 114.039062 C 128.269531 112.972656 128.710938 111.917969 129.179688 110.875 C 129.644531 109.832031 130.136719 108.800781 130.652344 107.78125 C 131.167969 106.757812 131.710938 105.753906 132.273438 104.757812 C 135.320312 99.425781 139.007812 94.574219 143.332031 90.214844 C 147.65625 85.855469 152.476562 82.128906 157.785156 79.039062 C 158.15625 78.820312 158.542969 78.628906 158.945312 78.472656 C 159.347656 78.316406 159.757812 78.199219 160.183594 78.113281 C 160.605469 78.027344 161.03125 77.980469 161.464844 77.96875 C 161.894531 77.957031 162.324219 77.984375 162.75 78.046875 C 163.179688 78.109375 163.597656 78.207031 164.007812 78.339844 C 164.417969 78.472656 164.8125 78.640625 165.191406 78.84375 C 165.574219 79.046875 165.933594 79.28125 166.277344 79.542969 C 166.617188 79.808594 166.933594 80.101562 167.222656 80.417969 L 213.378906 126.34375 C 213.734375 126.710938 214.050781 127.105469 214.332031 127.53125 C 214.609375 127.957031 214.84375 128.40625 215.039062 128.878906 C 215.230469 129.351562 215.375 129.839844 215.472656 130.339844 C 215.570312 130.839844 215.617188 131.34375 215.617188 131.855469 C 215.617188 132.363281 215.570312 132.871094 215.472656 133.371094 C 215.375 133.871094 215.230469 134.355469 215.039062 134.828125 C 214.84375 135.300781 214.609375 135.75 214.332031 136.179688 C 214.050781 136.605469 213.734375 137 213.378906 137.367188 C 213.023438 137.722656 212.636719 138.042969 212.21875 138.328125 C 211.796875 138.609375 211.355469 138.847656 210.890625 139.039062 C 210.425781 139.234375 209.945312 139.382812 209.449219 139.480469 C 208.953125 139.578125 208.453125 139.628906 207.949219 139.628906 C 207.445312 139.628906 206.941406 139.578125 206.449219 139.480469 C 205.953125 139.382812 205.472656 139.234375 205.007812 139.039062 C 204.539062 138.847656 204.097656 138.609375 203.679688 138.328125 C 203.261719 138.042969 202.875 137.722656 202.519531 137.367188 L 160.585938 95.644531 C 154.449219 100.222656 149.460938 105.828125 145.617188 112.453125 C 144.445312 114.519531 143.414062 116.65625 142.519531 118.859375 C 141.625 121.0625 140.878906 123.3125 140.273438 125.609375 C 139.667969 127.910156 139.214844 130.238281 138.910156 132.59375 C 138.605469 134.953125 138.453125 137.320312 138.453125 139.695312 C 138.453125 142.074219 138.605469 144.441406 138.910156 146.796875 C 139.214844 149.15625 139.667969 151.484375 140.273438 153.78125 C 140.878906 156.082031 141.625 158.332031 142.519531 160.535156 C 143.414062 162.738281 144.445312 164.871094 145.617188 166.941406 C 147.992188 171.089844 150.863281 174.859375 154.230469 178.25 C 157.597656 181.640625 161.347656 184.539062 165.480469 186.941406 Z M 219.554688 91.898438 C 219.117188 91.640625 218.707031 91.34375 218.324219 91.003906 C 217.945312 90.664062 217.601562 90.292969 217.292969 89.886719 C 216.984375 89.480469 216.71875 89.046875 216.496094 88.585938 C 216.273438 88.128906 216.097656 87.652344 215.964844 87.160156 C 215.835938 86.667969 215.753906 86.167969 215.722656 85.65625 C 215.691406 85.148438 215.710938 84.640625 215.777344 84.136719 C 215.84375 83.632812 215.960938 83.136719 216.125 82.652344 C 216.289062 82.171875 216.5 81.710938 216.753906 81.269531 C 217.007812 80.828125 217.300781 80.417969 217.636719 80.035156 C 217.972656 79.652344 218.339844 79.304688 218.742188 78.996094 C 219.144531 78.6875 219.574219 78.421875 220.03125 78.195312 C 220.484375 77.972656 220.957031 77.792969 221.449219 77.660156 C 221.941406 77.53125 222.4375 77.449219 222.945312 77.414062 C 223.453125 77.382812 223.957031 77.398438 224.460938 77.46875 C 224.964844 77.535156 225.457031 77.648438 225.9375 77.8125 C 226.417969 77.980469 226.878906 78.1875 227.316406 78.445312 C 228.632812 79.21875 229.921875 80.03125 231.183594 80.890625 C 232.445312 81.746094 233.679688 82.644531 234.882812 83.582031 C 236.085938 84.519531 237.257812 85.492188 238.398438 86.507812 C 239.539062 87.519531 240.644531 88.570312 241.71875 89.65625 C 242.789062 90.742188 243.824219 91.859375 244.824219 93.011719 C 245.824219 94.164062 246.785156 95.347656 247.707031 96.5625 C 248.632812 97.777344 249.511719 99.023438 250.355469 100.296875 C 251.195312 101.566406 251.996094 102.867188 252.753906 104.191406 C 253.511719 105.515625 254.226562 106.863281 254.894531 108.234375 C 255.566406 109.601562 256.191406 110.996094 256.769531 112.40625 C 257.347656 113.816406 257.882812 115.246094 258.367188 116.691406 C 258.855469 118.136719 259.296875 119.597656 259.6875 121.070312 C 260.078125 122.546875 260.421875 124.03125 260.71875 125.527344 C 261.011719 127.027344 261.261719 128.53125 261.457031 130.042969 C 261.65625 131.554688 261.804688 133.074219 261.902344 134.597656 C 262 136.117188 262.050781 137.644531 262.050781 139.167969 C 262.050781 140.695312 262 142.21875 261.902344 143.742188 C 261.804688 145.261719 261.65625 146.78125 261.457031 148.292969 C 261.261719 149.804688 261.011719 151.3125 260.71875 152.808594 C 260.421875 154.304688 260.078125 155.789062 259.6875 157.265625 C 259.296875 158.738281 258.855469 160.199219 258.367188 161.644531 C 257.882812 163.089844 257.347656 164.519531 256.769531 165.929688 C 256.191406 167.34375 255.566406 168.734375 254.894531 170.105469 C 254.226562 171.476562 253.511719 172.824219 252.753906 174.148438 C 251.996094 175.472656 251.195312 176.769531 250.355469 178.042969 C 249.511719 179.3125 248.632812 180.558594 247.707031 181.773438 C 246.785156 182.988281 245.824219 184.171875 244.824219 185.324219 C 243.824219 186.476562 242.789062 187.597656 241.71875 188.679688 C 240.644531 189.765625 239.539062 190.816406 238.398438 191.828125 C 237.257812 192.84375 236.085938 193.816406 234.882812 194.753906 C 233.679688 195.691406 232.445312 196.589844 231.183594 197.449219 C 229.921875 198.304688 228.632812 199.121094 227.316406 199.894531 C 226.570312 200.332031 225.769531 200.632812 224.917969 200.796875 C 224.070312 200.960938 223.214844 200.980469 222.355469 200.855469 C 221.5 200.730469 220.6875 200.46875 219.917969 200.066406 C 219.152344 199.664062 218.472656 199.148438 217.878906 198.515625 L 171.726562 153.074219 C 171.359375 152.71875 171.03125 152.335938 170.738281 151.917969 C 170.449219 151.5 170.203125 151.058594 170 150.589844 C 169.792969 150.125 169.640625 149.644531 169.53125 149.148438 C 169.421875 148.648438 169.363281 148.148438 169.351562 147.636719 C 169.34375 147.128906 169.382812 146.625 169.472656 146.125 C 169.5625 145.625 169.699219 145.136719 169.886719 144.664062 C 170.070312 144.191406 170.300781 143.738281 170.578125 143.3125 C 170.851562 142.882812 171.164062 142.484375 171.519531 142.117188 C 171.871094 141.753906 172.257812 141.425781 172.671875 141.132812 C 173.089844 140.84375 173.53125 140.597656 174 140.394531 C 174.464844 140.1875 174.945312 140.035156 175.445312 139.925781 C 175.941406 139.816406 176.441406 139.757812 176.953125 139.746094 C 177.460938 139.738281 177.964844 139.777344 178.464844 139.867188 C 178.964844 139.957031 179.453125 140.09375 179.925781 140.28125 C 180.398438 140.464844 180.851562 140.695312 181.28125 140.972656 C 181.707031 141.246094 182.105469 141.558594 182.472656 141.914062 L 224.378906 183.246094 C 230.59375 178.714844 235.605469 173.113281 239.417969 166.4375 C 240.308594 164.890625 241.117188 163.300781 241.851562 161.675781 C 242.585938 160.046875 243.238281 158.390625 243.808594 156.699219 C 244.382812 155.007812 244.867188 153.292969 245.273438 151.554688 C 245.675781 149.816406 245.996094 148.0625 246.226562 146.292969 C 246.457031 144.523438 246.605469 142.746094 246.664062 140.964844 C 246.71875 139.179688 246.691406 137.398438 246.574219 135.617188 C 246.460938 133.835938 246.257812 132.066406 245.96875 130.304688 C 245.679688 128.542969 245.304688 126.800781 244.84375 125.074219 C 244.386719 123.351562 243.84375 121.652344 243.21875 119.980469 C 242.59375 118.308594 241.886719 116.671875 241.101562 115.070312 C 240.316406 113.46875 239.453125 111.910156 238.515625 110.390625 C 237.578125 108.871094 236.566406 107.402344 235.484375 105.984375 C 234.402344 104.566406 233.253906 103.203125 232.039062 101.894531 C 230.824219 100.585938 229.546875 99.34375 228.210938 98.160156 C 226.875 96.980469 225.480469 95.863281 224.035156 94.820312 C 222.589844 93.773438 221.097656 92.800781 219.554688 91.898438 Z M 219.554688 91.898438 " fill-opacity="1" fill-rule="nonzero"/></g><path stroke-linecap="butt" transform="matrix(0.622443, -0.418408, 0.418408, 0.622443, 28.008425, 116.715036)" fill="none" stroke-linejoin="miter" d="M -0.00240537 2.000016 L 257.595619 1.999637 " stroke="#ffffff" stroke-width="4" stroke-opacity="1" stroke-miterlimit="4"/><path stroke-linecap="butt" transform="matrix(0.620215, -0.421702, 0.421702, 0.620215, 185.816637, 360.576948)" fill="none" stroke-linejoin="miter" d="M 0.000855924 1.999013 L 258.516362 2.000515 " stroke="#ffffff" stroke-width="4" stroke-opacity="1" stroke-miterlimit="4"/><path stroke-linecap="butt" transform="matrix(-0.621426, -0.419916, 0.419916, -0.621426, 347.835392, 119.202429)" fill="none" stroke-linejoin="miter" d="M -0.00163161 1.998912 L 256.660572 2.000175 " stroke="#ffffff" stroke-width="4" stroke-opacity="1" stroke-miterlimit="4"/><path stroke-linecap="butt" transform="matrix(-0.621426, -0.419916, 0.419916, -0.621426, 185.816126, 363.059331)" fill="none" stroke-linejoin="miter" d="M -0.000269116 2.000297 L 256.661935 2.00156 " stroke="#ffffff" stroke-width="4" stroke-opacity="1" stroke-miterlimit="4"/><g clip-path="url(#61df5d6ccd)"><g clip-path="url(#9e77da356b)"><path fill="#ffffff" d="M 183.210938 19.589844 L 195.15625 19.589844 L 195.15625 31.53125 L 183.210938 31.53125 Z M 183.210938 19.589844 " fill-opacity="1" fill-rule="nonzero"/></g></g><g fill="#ffffff" fill-opacity="1"><g transform="translate(54.609375, 251.382713)"><g><path d="M 12.65625 0.40625 C 10.675781 0.40625 8.914062 0.160156 7.375 -0.328125 C 5.832031 -0.816406 4.546875 -1.457031 3.515625 -2.25 C 2.484375 -3.039062 1.695312 -3.910156 1.15625 -4.859375 L 4.265625 -8.65625 L 4.75 -8.65625 C 5.601562 -7.375 6.691406 -6.351562 8.015625 -5.59375 C 9.335938 -4.84375 10.882812 -4.46875 12.65625 -4.46875 C 14.164062 -4.46875 15.304688 -4.785156 16.078125 -5.421875 C 16.847656 -6.066406 17.234375 -6.945312 17.234375 -8.0625 C 17.234375 -8.738281 17.109375 -9.304688 16.859375 -9.765625 C 16.609375 -10.222656 16.195312 -10.613281 15.625 -10.9375 C 15.050781 -11.257812 14.273438 -11.539062 13.296875 -11.78125 L 9.625 -12.625 C 7.0625 -13.207031 5.148438 -14.175781 3.890625 -15.53125 C 2.640625 -16.894531 2.015625 -18.664062 2.015625 -20.84375 C 2.015625 -22.457031 2.414062 -23.875 3.21875 -25.09375 C 4.03125 -26.320312 5.207031 -27.273438 6.75 -27.953125 C 8.289062 -28.628906 10.132812 -28.96875 12.28125 -28.96875 C 14.488281 -28.96875 16.375 -28.675781 17.9375 -28.09375 C 19.507812 -27.519531 20.835938 -26.632812 21.921875 -25.4375 L 19.125 -21.609375 L 18.640625 -21.609375 C 17.828125 -22.453125 16.898438 -23.082031 15.859375 -23.5 C 14.816406 -23.925781 13.625 -24.140625 12.28125 -24.140625 C 10.738281 -24.140625 9.5625 -23.863281 8.75 -23.3125 C 7.945312 -22.769531 7.546875 -22.019531 7.546875 -21.0625 C 7.546875 -20.15625 7.828125 -19.4375 8.390625 -18.90625 C 8.953125 -18.375 9.929688 -17.957031 11.328125 -17.65625 L 15.078125 -16.875 C 17.847656 -16.289062 19.859375 -15.296875 21.109375 -13.890625 C 22.359375 -12.492188 22.984375 -10.671875 22.984375 -8.421875 C 22.984375 -6.640625 22.597656 -5.085938 21.828125 -3.765625 C 21.066406 -2.441406 19.910156 -1.414062 18.359375 -0.6875 C 16.804688 0.0390625 14.90625 0.40625 12.65625 0.40625 Z M 12.65625 0.40625 "/></g></g></g><g fill="#ffffff" fill-opacity="1"><g transform="translate(79.138228, 251.382713)"><g><path d="M 11.5625 0 L 5.90625 0 L 0.78125 -21.546875 L 5.796875 -21.546875 L 8.96875 -6.96875 L 9.375 -6.96875 L 13.484375 -21.546875 L 18.171875 -21.546875 L 22.40625 -6.96875 L 22.8125 -6.96875 L 25.859375 -21.546875 L 30.75 -21.546875 L 25.6875 0 L 20 0 L 15.921875 -14.671875 L 15.515625 -14.671875 Z M 11.5625 0 "/></g></g></g><g fill="#ffffff" fill-opacity="1"><g transform="translate(110.639061, 251.382713)"><g><path d="M 5.796875 -24.125 C 4.828125 -24.125 4.035156 -24.421875 3.421875 -25.015625 C 2.804688 -25.609375 2.5 -26.375 2.5 -27.3125 C 2.5 -28.226562 2.804688 -28.984375 3.421875 -29.578125 C 4.035156 -30.171875 4.828125 -30.46875 5.796875 -30.46875 C 6.453125 -30.46875 7.03125 -30.332031 7.53125 -30.0625 C 8.039062 -29.789062 8.4375 -29.414062 8.71875 -28.9375 C 9 -28.457031 9.140625 -27.914062 9.140625 -27.3125 C 9.140625 -26.695312 9 -26.144531 8.71875 -25.65625 C 8.4375 -25.175781 8.039062 -24.800781 7.53125 -24.53125 C 7.03125 -24.257812 6.453125 -24.125 5.796875 -24.125 Z M 3.109375 0 L 3.109375 -21.546875 L 8.515625 -21.546875 L 8.515625 0 Z M 3.109375 0 "/></g></g></g><g fill="#ffffff" fill-opacity="1"><g transform="translate(122.23949, 251.382713)"><g><path d="M 3.765625 0 L 3.765625 -17.265625 L 0.71875 -17.265625 L 0.71875 -21.5625 L 3.765625 -21.5625 C 3.546875 -22.476562 3.4375 -23.332031 3.4375 -24.125 C 3.4375 -25.488281 3.75 -26.65625 4.375 -27.625 C 5 -28.59375 5.894531 -29.332031 7.0625 -29.84375 C 8.238281 -30.351562 9.632812 -30.609375 11.25 -30.609375 C 13.632812 -30.609375 15.410156 -30.195312 16.578125 -29.375 L 15.3125 -25.390625 L 14.90625 -25.3125 C 14.09375 -25.882812 13.054688 -26.171875 11.796875 -26.171875 C 10.816406 -26.171875 10.082031 -25.929688 9.59375 -25.453125 C 9.113281 -24.984375 8.875 -24.335938 8.875 -23.515625 C 8.875 -23.160156 8.894531 -22.835938 8.9375 -22.546875 C 8.976562 -22.253906 9.0625 -21.925781 9.1875 -21.5625 L 15.328125 -21.5625 L 15.328125 -17.265625 L 9.1875 -17.265625 L 9.1875 0 Z M 3.765625 0 "/></g></g></g><g fill="#ffffff" fill-opacity="1"><g transform="translate(137.784846, 251.382713)"><g><path d="M 14.859375 -5.140625 L 16.265625 -1.140625 C 15.679688 -0.648438 14.945312 -0.269531 14.0625 0 C 13.175781 0.269531 12.175781 0.40625 11.0625 0.40625 C 8.726562 0.40625 6.953125 -0.226562 5.734375 -1.5 C 4.523438 -2.769531 3.921875 -4.613281 3.921875 -7.03125 L 3.921875 -17.265625 L 0.640625 -17.265625 L 0.640625 -21.5625 L 3.921875 -21.5625 L 3.921875 -25.765625 L 9.34375 -26.640625 L 9.34375 -21.5625 L 15.453125 -21.5625 L 15.453125 -17.265625 L 9.34375 -17.265625 L 9.34375 -7.421875 C 9.34375 -6.359375 9.5625 -5.582031 10 -5.09375 C 10.445312 -4.601562 11.09375 -4.359375 11.9375 -4.359375 C 12.894531 -4.359375 13.734375 -4.617188 14.453125 -5.140625 Z M 14.859375 -5.140625 "/></g></g></g><g fill="#ffffff" fill-opacity="1"><g transform="translate(154.521497, 251.382713)"><g><path d="M 15.609375 0.40625 C 12.972656 0.40625 10.648438 -0.140625 8.640625 -1.234375 C 6.640625 -2.328125 5.070312 -3.96875 3.9375 -6.15625 C 2.8125 -8.351562 2.25 -11.0625 2.25 -14.28125 C 2.25 -17.5 2.8125 -20.203125 3.9375 -22.390625 C 5.070312 -24.585938 6.640625 -26.234375 8.640625 -27.328125 C 10.648438 -28.421875 12.972656 -28.96875 15.609375 -28.96875 C 18.359375 -28.96875 20.691406 -28.429688 22.609375 -27.359375 C 24.523438 -26.285156 25.894531 -24.644531 26.71875 -22.4375 L 22.59375 -19.921875 L 22.109375 -19.9375 C 21.492188 -21.425781 20.660156 -22.492188 19.609375 -23.140625 C 18.566406 -23.785156 17.234375 -24.109375 15.609375 -24.109375 C 13.234375 -24.109375 11.378906 -23.320312 10.046875 -21.75 C 8.722656 -20.175781 8.0625 -17.6875 8.0625 -14.28125 C 8.0625 -10.882812 8.722656 -8.398438 10.046875 -6.828125 C 11.378906 -5.253906 13.234375 -4.46875 15.609375 -4.46875 C 19.316406 -4.46875 21.585938 -6.273438 22.421875 -9.890625 L 22.90625 -9.890625 L 27.078125 -7.71875 C 26.296875 -5.007812 24.957031 -2.976562 23.0625 -1.625 C 21.175781 -0.269531 18.691406 0.40625 15.609375 0.40625 Z M 15.609375 0.40625 "/></g></g></g><g fill="#ffffff" fill-opacity="1"><g transform="translate(182.526572, 251.382713)"><g><path d="M 12.515625 0.40625 C 10.410156 0.40625 8.5625 -0.0234375 6.96875 -0.890625 C 5.375 -1.753906 4.132812 -3.019531 3.25 -4.6875 C 2.375 -6.363281 1.9375 -8.390625 1.9375 -10.765625 C 1.9375 -13.128906 2.375 -15.148438 3.25 -16.828125 C 4.132812 -18.515625 5.375 -19.789062 6.96875 -20.65625 C 8.5625 -21.519531 10.410156 -21.953125 12.515625 -21.953125 C 14.628906 -21.953125 16.484375 -21.519531 18.078125 -20.65625 C 19.671875 -19.789062 20.910156 -18.515625 21.796875 -16.828125 C 22.679688 -15.148438 23.125 -13.128906 23.125 -10.765625 C 23.125 -8.390625 22.679688 -6.363281 21.796875 -4.6875 C 20.910156 -3.019531 19.671875 -1.753906 18.078125 -0.890625 C 16.484375 -0.0234375 14.628906 0.40625 12.515625 0.40625 Z M 12.515625 -4.1875 C 15.867188 -4.1875 17.546875 -6.378906 17.546875 -10.765625 C 17.546875 -13.046875 17.113281 -14.710938 16.25 -15.765625 C 15.394531 -16.828125 14.148438 -17.359375 12.515625 -17.359375 C 9.171875 -17.359375 7.5 -15.160156 7.5 -10.765625 C 7.5 -6.378906 9.171875 -4.1875 12.515625 -4.1875 Z M 12.515625 -4.1875 "/></g></g></g><g fill="#ffffff" fill-opacity="1"><g transform="translate(207.563187, 251.382713)"><g><path d="M 3.109375 0 L 3.109375 -21.546875 L 8.296875 -21.546875 L 8.296875 -18.375 L 8.71875 -18.28125 C 10.050781 -20.726562 12.222656 -21.953125 15.234375 -21.953125 C 17.722656 -21.953125 19.550781 -21.273438 20.71875 -19.921875 C 21.882812 -18.566406 22.46875 -16.59375 22.46875 -14 L 22.46875 0 L 17.046875 0 L 17.046875 -13.34375 C 17.046875 -14.769531 16.757812 -15.800781 16.1875 -16.4375 C 15.613281 -17.070312 14.695312 -17.390625 13.4375 -17.390625 C 11.882812 -17.390625 10.675781 -16.882812 9.8125 -15.875 C 8.945312 -14.875 8.515625 -13.300781 8.515625 -11.15625 L 8.515625 0 Z M 3.109375 0 "/></g></g></g><g fill="#ffffff" fill-opacity="1"><g transform="translate(232.795097, 251.382713)"><g><path d="M 3.109375 0 L 3.109375 -21.546875 L 8.296875 -21.546875 L 8.296875 -18.375 L 8.71875 -18.28125 C 10.050781 -20.726562 12.222656 -21.953125 15.234375 -21.953125 C 17.722656 -21.953125 19.550781 -21.273438 20.71875 -19.921875 C 21.882812 -18.566406 22.46875 -16.59375 22.46875 -14 L 22.46875 0 L 17.046875 0 L 17.046875 -13.34375 C 17.046875 -14.769531 16.757812 -15.800781 16.1875 -16.4375 C 15.613281 -17.070312 14.695312 -17.390625 13.4375 -17.390625 C 11.882812 -17.390625 10.675781 -16.882812 9.8125 -15.875 C 8.945312 -14.875 8.515625 -13.300781 8.515625 -11.15625 L 8.515625 0 Z M 3.109375 0 "/></g></g></g><g fill="#ffffff" fill-opacity="1"><g transform="translate(258.026994, 251.382713)"><g><path d="M 21.296875 -9.546875 L 7.4375 -9.546875 C 7.59375 -7.671875 8.125 -6.304688 9.03125 -5.453125 C 9.945312 -4.609375 11.195312 -4.1875 12.78125 -4.1875 C 14.007812 -4.1875 15.007812 -4.414062 15.78125 -4.875 C 16.550781 -5.332031 17.171875 -6.03125 17.640625 -6.96875 L 18.046875 -6.96875 L 21.640625 -4.671875 C 20.941406 -3.160156 19.878906 -1.9375 18.453125 -1 C 17.035156 -0.0625 15.144531 0.40625 12.78125 0.40625 C 10.550781 0.40625 8.625 -0.015625 7 -0.859375 C 5.382812 -1.703125 4.132812 -2.960938 3.25 -4.640625 C 2.375 -6.316406 1.9375 -8.359375 1.9375 -10.765625 C 1.9375 -13.210938 2.394531 -15.273438 3.3125 -16.953125 C 4.238281 -18.628906 5.488281 -19.878906 7.0625 -20.703125 C 8.644531 -21.535156 10.421875 -21.953125 12.390625 -21.953125 C 15.429688 -21.953125 17.757812 -21.144531 19.375 -19.53125 C 21 -17.914062 21.8125 -15.546875 21.8125 -12.421875 C 21.8125 -11.285156 21.773438 -10.40625 21.703125 -9.78125 Z M 16.640625 -13.046875 C 16.585938 -14.691406 16.207031 -15.882812 15.5 -16.625 C 14.789062 -17.375 13.753906 -17.75 12.390625 -17.75 C 9.648438 -17.75 8.039062 -16.179688 7.5625 -13.046875 Z M 16.640625 -13.046875 "/></g></g></g><g fill="#ffffff" fill-opacity="1"><g transform="translate(281.44268, 251.382713)"><g><path d="M 12.5625 0.40625 C 10.476562 0.40625 8.632812 -0.0234375 7.03125 -0.890625 C 5.425781 -1.753906 4.175781 -3.023438 3.28125 -4.703125 C 2.382812 -6.390625 1.9375 -8.410156 1.9375 -10.765625 C 1.9375 -13.128906 2.382812 -15.148438 3.28125 -16.828125 C 4.175781 -18.515625 5.414062 -19.789062 7 -20.65625 C 8.59375 -21.519531 10.414062 -21.953125 12.46875 -21.953125 C 17.007812 -21.953125 19.914062 -20.304688 21.1875 -17.015625 L 17.484375 -14.359375 L 17.078125 -14.359375 C 16.628906 -15.367188 16.050781 -16.117188 15.34375 -16.609375 C 14.632812 -17.109375 13.675781 -17.359375 12.46875 -17.359375 C 10.90625 -17.359375 9.6875 -16.816406 8.8125 -15.734375 C 7.9375 -14.660156 7.5 -13.003906 7.5 -10.765625 C 7.5 -8.546875 7.941406 -6.894531 8.828125 -5.8125 C 9.710938 -4.726562 10.957031 -4.1875 12.5625 -4.1875 C 13.726562 -4.1875 14.71875 -4.5 15.53125 -5.125 C 16.351562 -5.757812 16.9375 -6.671875 17.28125 -7.859375 L 17.703125 -7.890625 L 21.546875 -5.78125 C 20.992188 -3.957031 19.976562 -2.46875 18.5 -1.3125 C 17.03125 -0.164062 15.050781 0.40625 12.5625 0.40625 Z M 12.5625 0.40625 "/></g></g></g><g fill="#ffffff" fill-opacity="1"><g transform="translate(303.647536, 251.382713)"><g><path d="M 14.859375 -5.140625 L 16.265625 -1.140625 C 15.679688 -0.648438 14.945312 -0.269531 14.0625 0 C 13.175781 0.269531 12.175781 0.40625 11.0625 0.40625 C 8.726562 0.40625 6.953125 -0.226562 5.734375 -1.5 C 4.523438 -2.769531 3.921875 -4.613281 3.921875 -7.03125 L 3.921875 -17.265625 L 0.640625 -17.265625 L 0.640625 -21.5625 L 3.921875 -21.5625 L 3.921875 -25.765625 L 9.34375 -26.640625 L 9.34375 -21.5625 L 15.453125 -21.5625 L 15.453125 -17.265625 L 9.34375 -17.265625 L 9.34375 -7.421875 C 9.34375 -6.359375 9.5625 -5.582031 10 -5.09375 C 10.445312 -4.601562 11.09375 -4.359375 11.9375 -4.359375 C 12.894531 -4.359375 13.734375 -4.617188 14.453125 -5.140625 Z M 14.859375 -5.140625 "/></g></g></g><g clip-path="url(#31d1b75da6)"><g clip-path="url(#e4c5c00f86)"><path fill="#ffffff" d="M 181.007812 338.207031 L 193.628906 338.207031 L 193.628906 350.828125 L 181.007812 350.828125 Z M 181.007812 338.207031 " fill-opacity="1" fill-rule="nonzero"/></g></g></svg>